<?xml version="1.0" encoding="UTF-8"?>
<svg id="Layer_1" data-name="Layer 1" xmlns="http://www.w3.org/2000/svg" viewBox="0 0 127.17 65.62">
  <defs>
    <style>
      .cls-1 {
        fill: #231f20;
      }

      .cls-1, .cls-2 {
        stroke-width: 0px;
      }

      .cls-2 {
        fill: #fff;
      }
    </style>
  </defs>
  <g>
    <path class="cls-1" d="M1.68,7.62c.34,0,.62.12.85.35.23.23.35.52.35.85s-.12.62-.35.86c-.23.22-.52.34-.85.34s-.62-.12-.85-.35c-.23-.23-.35-.52-.35-.85s.11-.62.34-.85c.24-.23.53-.35.86-.35Z"/>
    <path class="cls-1" d="M5.52,2.82c.34,0,.62.12.85.35.14.14.25.33.31.55.05.2.05.4,0,.61-.05.21-.15.39-.31.55-.23.22-.52.34-.85.34s-.62-.12-.85-.35c-.23-.23-.35-.52-.35-.85s.11-.62.34-.85c.24-.23.53-.35.86-.35Z"/>
    <path class="cls-1" d="M9.36,5.22c.34,0,.62.12.85.35.14.14.25.33.31.55.05.2.05.4,0,.61-.05.21-.15.39-.29.54-.24.23-.53.35-.86.35s-.62-.12-.85-.35c-.23-.23-.35-.52-.35-.85s.12-.62.35-.86c.23-.22.52-.34.85-.34Z"/>
    <path class="cls-1" d="M13.2.42c.34,0,.62.12.85.35.14.14.25.33.31.55.05.2.05.4,0,.61-.05.21-.15.39-.29.54-.24.23-.53.35-.86.35s-.62-.12-.85-.35c-.23-.23-.35-.52-.35-.85s.12-.62.35-.86c.23-.22.52-.34.85-.34Z"/>
    <path class="cls-1" d="M20.46,10.2c-.67.18-1.34.18-2.01,0-.67-.17-1.26-.51-1.76-1.01-.5-.5-.83-1.09-1.01-1.76-.18-.67-.18-1.34,0-2,.18-.67.51-1.25,1.01-1.76.5-.5,1.08-.83,1.75-1.01s1.34-.18,2.02,0,1.26.51,1.75,1.01c.5.5.83,1.09,1.01,1.76.18.67.18,1.34,0,2-.18.67-.51,1.25-1.01,1.76-.5.5-1.08.83-1.75,1.01ZM19.44,7.62c.34,0,.62-.12.86-.35.15-.15.25-.34.3-.55.05-.2.04-.4-.01-.61-.06-.21-.16-.39-.3-.54-.23-.23-.52-.35-.85-.35-.34,0-.62.11-.85.34-.16.16-.26.35-.31.56-.05.21-.04.41.01.62.06.2.16.38.3.53.23.23.52.35.85.35Z"/>
    <path class="cls-1" d="M30.6,10.13c-.88.23-1.75.23-2.62,0-.87-.23-1.63-.67-2.28-1.33-.66-.65-1.1-1.41-1.33-2.29s-.23-1.75,0-2.63.67-1.64,1.33-2.29c.65-.66,1.41-1.1,2.29-1.33s1.75-.23,2.62,0c.87.23,1.63.67,2.28,1.33.66.65,1.1,1.41,1.33,2.29s.23,1.75,0,2.63-.67,1.64-1.33,2.29c-.65.66-1.41,1.1-2.29,1.33ZM28.65,7.6c.43.11.85.11,1.28,0,.42-.11.79-.33,1.1-.65.31-.32.52-.69.64-1.12.11-.42.11-.85,0-1.27-.11-.42-.32-.79-.64-1.11-.31-.31-.68-.52-1.11-.64-.43-.11-.85-.11-1.28,0-.42.11-.79.32-1.1.64-.32.32-.54.7-.65,1.13-.1.42-.1.83.01,1.25s.32.79.64,1.11c.31.32.68.54,1.11.65Z"/>
    <path class="cls-1" d="M40.16,7.8c-.67.18-1.34.18-2.02,0-.67-.18-1.26-.51-1.75-1.01-.5-.5-.83-1.09-1.01-1.76-.18-.67-.18-1.34,0-2,.18-.67.51-1.25,1.01-1.76.5-.5,1.08-.83,1.75-1.01s1.34-.18,2.02,0,1.26.51,1.75,1.01c.5.5.83,1.09,1.01,1.76.18.67.18,1.34,0,2-.18.67-.51,1.25-1.01,1.76-.5.5-1.08.83-1.75,1.01ZM39.15,5.22c.34,0,.62-.12.86-.35.15-.15.25-.34.3-.55.05-.2.04-.4-.01-.61-.06-.21-.16-.39-.3-.54-.23-.23-.52-.35-.85-.35s-.62.11-.85.34c-.16.16-.26.35-.31.56-.06.2-.06.4,0,.61.06.21.16.39.31.54.23.23.52.35.85.35Z"/>
    <path class="cls-1" d="M44.24,6.36c-.22-.84-.22-1.69,0-2.53.22-.84.65-1.58,1.28-2.21s1.37-1.06,2.21-1.28c.84-.22,1.68-.22,2.53,0,.84.22,1.58.65,2.21,1.28.63.63,1.06,1.37,1.28,2.21.22.84.22,1.68,0,2.53-.22.84-.65,1.58-1.28,2.21s-1.37,1.06-2.21,1.28c-.84.22-1.69.22-2.53,0-.84-.22-1.58-.65-2.21-1.28-.63-.63-1.06-1.37-1.28-2.21ZM48.3,7.49c.41.11.82.11,1.24,0s.77-.31,1.09-.62c.3-.3.51-.66.61-1.07s.1-.82,0-1.24c-.1-.41-.31-.77-.61-1.07-.31-.3-.67-.51-1.09-.62s-.82-.11-1.24,0-.77.31-1.07.61c-.3.31-.51.67-.62,1.09-.11.41-.11.82,0,1.24s.31.77.62,1.07c.3.3.66.51,1.07.62Z"/>
    <path class="cls-1" d="M57.83,2.66c.67-.18,1.34-.18,2,0s1.25.51,1.76,1.01c.5.5.83,1.08,1.01,1.75.18.67.18,1.34,0,2.02-.18.67-.51,1.26-1.01,1.75-.5.5-1.09.83-1.76,1.01-.67.18-1.34.18-2,0-.67-.18-1.25-.51-1.76-1.01-.5-.5-.84-1.09-1.01-1.76-.17-.67-.17-1.34,0-2.01.18-.67.51-1.25,1.01-1.75.5-.5,1.09-.83,1.76-1.01Z"/>
    <path class="cls-1" d="M65.19.51c.8-.4,1.6-.4,2.4,0,.8.4,1.2,1.1,1.2,2.11v5.18c0,1.01-.4,1.71-1.2,2.11-.8.4-1.6.4-2.4,0-.8-.4-1.2-1.1-1.2-2.11V2.62c0-1.01.4-1.71,1.2-2.11Z"/>
    <path class="cls-1" d="M70.64,1.96c.36-.57.83-1.02,1.41-1.34s1.21-.49,1.9-.49,1.32.16,1.9.49,1.05.78,1.41,1.34c.36.57.56,1.2.59,1.88v2.38c.02.73-.14,1.4-.48,2.02-.34.62-.82,1.11-1.42,1.48-.6.37-1.27.55-2,.55s-1.39-.18-2-.55c-.6-.37-1.08-.86-1.42-1.48-.34-.62-.5-1.29-.48-2.02v-2.38c.03-.69.23-1.32.59-1.88Z"/>
    <path class="cls-1" d="M82.59.29c.88-.23,1.75-.23,2.63,0s1.64.67,2.29,1.33c.66.65,1.11,1.42,1.33,2.32.22.86.21,1.73-.02,2.6s-.67,1.63-1.31,2.27c-.65.66-1.41,1.1-2.29,1.33-.88.23-1.75.23-2.63,0-.88-.23-1.64-.67-2.29-1.33-.66-.65-1.1-1.41-1.33-2.29s-.23-1.75,0-2.62c.23-.87.67-1.63,1.33-2.28.65-.66,1.41-1.1,2.29-1.33Z"/>
    <path class="cls-1" d="M90.29,4.77c.02-.42.14-.81.36-1.18.22-.34.51-.6.87-.8.36-.2.74-.3,1.16-.3.44,0,.84.1,1.19.31.35.2.64.47.85.82.22.35.33.73.35,1.15v3.05c.02.45-.08.86-.29,1.25-.21.38-.5.69-.87.91-.37.22-.78.34-1.23.34s-.86-.11-1.23-.34c-.37-.22-.66-.53-.87-.91-.21-.38-.3-.8-.29-1.25v-3.05Z"/>
    <path class="cls-1" d="M96.65,2.38c.02-.42.14-.81.36-1.18.22-.34.51-.6.87-.8.36-.2.74-.3,1.16-.3.44,0,.84.1,1.19.31.35.2.64.47.85.82.22.35.33.73.35,1.15v3.05c.02.45-.08.86-.29,1.25-.21.38-.5.69-.87.91-.37.22-.78.34-1.23.34s-.86-.11-1.23-.34c-.37-.22-.66-.53-.87-.91-.21-.38-.3-.8-.29-1.25v-3.05Z"/>
    <path class="cls-1" d="M104.76,5.31c.42-.11.83-.11,1.24,0,.41.11.77.31,1.07.62.3.3.51.67.62,1.09.1.4.1.81,0,1.22-.1.41-.31.77-.61,1.07s-.66.51-1.08.62c-.42.11-.83.11-1.25,0-.42-.11-.77-.31-1.07-.61s-.51-.66-.62-1.08-.11-.83,0-1.25.31-.78.62-1.08.65-.5,1.07-.61Z"/>
    <path class="cls-1" d="M111.12.51c.42-.11.83-.11,1.24,0,.41.11.77.31,1.07.62.3.3.51.67.62,1.09.1.4.1.81,0,1.22s-.31.77-.61,1.07c-.31.31-.68.52-1.09.62s-.83.1-1.24,0-.76-.31-1.07-.61c-.3-.3-.51-.66-.62-1.08-.11-.42-.11-.83,0-1.25.11-.42.31-.78.62-1.08.3-.3.65-.5,1.07-.61Z"/>
    <path class="cls-1" d="M123.34,2.83c.42.02.81.14,1.18.36.34.22.6.51.8.87s.3.74.3,1.16c0,.44-.1.84-.31,1.19-.2.35-.47.64-.82.85-.35.22-.73.33-1.15.35h-5.45c-.45.02-.86-.08-1.25-.29-.38-.21-.69-.5-.91-.87-.22-.37-.34-.78-.34-1.23s.11-.86.34-1.23c.22-.37.53-.66.91-.87.38-.21.8-.3,1.25-.29h5.45Z"/>
    <path class="cls-1" d="M8.12,17.42c.42.02.81.14,1.18.36.34.22.6.51.8.87s.3.74.3,1.16c0,.44-.1.84-.31,1.19-.2.35-.47.64-.82.85-.35.22-.73.33-1.15.35H2.67c-.45.02-.86-.08-1.25-.29-.38-.21-.69-.5-.91-.87-.22-.37-.34-.78-.34-1.23s.11-.86.34-1.23c.22-.37.53-.66.91-.87.38-.21.8-.3,1.25-.29h5.45Z"/>
    <path class="cls-1" d="M19.29,22.22c.42.02.81.14,1.18.36.34.22.6.51.8.87s.3.74.3,1.16c0,.44-.1.84-.31,1.19-.2.35-.47.64-.82.85-.35.22-.73.33-1.15.35h-5.45c-.45.02-.86-.08-1.25-.29-.38-.21-.69-.5-.91-.87-.22-.37-.34-.78-.34-1.23s.11-.86.34-1.23c.22-.37.53-.66.91-.87.38-.21.8-.3,1.25-.29h5.45Z"/>
    <path class="cls-1" d="M23.8,27.02c-.27,0-.5-.06-.7-.17-.19-.12-.34-.27-.43-.45-.13-.25-.17-.51-.13-.79.04-.28.17-.51.39-.7.22-.19.5-.29.86-.29h2.84c.54,0,.92.2,1.13.6s.21.8,0,1.2c-.22.4-.59.6-1.13.6h-2.84Z"/>
    <path class="cls-1" d="M35.43,24.62c.54,0,.91.2,1.12.6s.21.8,0,1.2c-.21.4-.58.6-1.12.6h-5.24c-.54,0-.92-.2-1.13-.6-.21-.4-.21-.8,0-1.2s.59-.6,1.13-.6h5.24Z"/>
    <path class="cls-1" d="M46.48,24.62c.27,0,.5.06.7.17.19.12.34.27.43.45.13.25.17.51.13.79-.04.28-.17.51-.39.7-.22.19-.5.29-.86.29h-7.52c-.54,0-.92-.2-1.13-.6-.21-.4-.21-.8,0-1.2s.59-.6,1.13-.6h7.52Z"/>
    <path class="cls-1" d="M52.85,22.22c.27,0,.5.06.7.17.19.12.34.27.43.45.13.25.17.51.13.79-.04.28-.17.51-.39.7s-.5.29-.86.29h-2.84c-.54,0-.92-.2-1.13-.6-.21-.4-.21-.8,0-1.2.22-.4.59-.6,1.13-.6h2.84Z"/>
    <path class="cls-1" d="M61.63,22.22c.54,0,.91.2,1.12.6.21.4.21.8,0,1.2s-.58.6-1.12.6h-5.24c-.54,0-.92-.2-1.13-.6-.21-.4-.21-.8,0-1.2.22-.4.59-.6,1.13-.6h5.24Z"/>
    <path class="cls-1" d="M72.74,22.22c.27,0,.5.06.7.17.19.12.34.27.43.45.13.25.17.51.13.79-.04.28-.17.51-.39.7-.22.19-.5.29-.86.29h-7.52c-.54,0-.92-.2-1.13-.6s-.21-.8,0-1.2c.22-.4.59-.6,1.13-.6h7.52Z"/>
    <path class="cls-1" d="M79.17,19.82c.27,0,.5.06.7.17.19.12.34.27.43.45.13.25.17.51.13.79-.04.28-.17.51-.39.7s-.5.29-.86.29h-2.84c-.54,0-.92-.2-1.13-.6-.21-.4-.21-.8,0-1.2.22-.4.59-.6,1.13-.6h2.84Z"/>
    <path class="cls-1" d="M87.94,19.82c.54,0,.91.2,1.12.6.21.4.21.8,0,1.2s-.58.6-1.12.6h-5.24c-.54,0-.92-.2-1.13-.6-.21-.4-.21-.8,0-1.2.22-.4.59-.6,1.13-.6h5.24Z"/>
    <path class="cls-1" d="M99.05,19.82c.27,0,.5.06.7.17.19.12.34.27.43.45.13.25.17.51.13.79s-.17.51-.39.7c-.22.19-.5.29-.86.29h-7.52c-.54,0-.92-.2-1.13-.6s-.21-.8,0-1.2c.22-.4.59-.6,1.13-.6h7.52Z"/>
    <path class="cls-1" d="M105.48,17.42c.27,0,.5.06.7.17.19.12.34.27.43.45.13.25.17.51.13.79-.04.28-.17.51-.39.7-.22.19-.5.29-.86.29h-2.84c-.54,0-.92-.2-1.13-.6-.21-.4-.21-.8,0-1.2s.59-.6,1.13-.6h2.84Z"/>
    <path class="cls-1" d="M114.26,17.42c.54,0,.91.2,1.12.6s.21.8,0,1.2-.58.6-1.12.6h-5.24c-.54,0-.92-.2-1.13-.6-.21-.4-.21-.8,0-1.2s.59-.6,1.13-.6h5.24Z"/>
    <path class="cls-1" d="M125.37,17.42c.27,0,.5.06.7.17.19.12.34.27.43.45.13.25.17.51.13.79s-.17.51-.39.7c-.22.19-.5.29-.86.29h-7.52c-.54,0-.92-.2-1.13-.6s-.21-.8,0-1.2c.22-.4.59-.6,1.13-.6h7.52Z"/>
    <path class="cls-1" d="M.96,39.05c.4-.22.8-.22,1.2,0,.4.22.6.59.6,1.13v2.76c0,.54-.2.91-.6,1.12-.4.21-.8.21-1.2,0-.4-.21-.6-.58-.6-1.12v-2.76c0-.54.2-.91.6-1.13Z"/>
    <path class="cls-1" d="M5.52,36.78c.4-.22.8-.22,1.2,0,.4.22.6.59.6,1.13v5.03c0,.54-.2.91-.6,1.12-.4.21-.8.21-1.2,0-.4-.21-.6-.58-.6-1.12v-5.03c0-.54.2-.91.6-1.13Z"/>
    <path class="cls-1" d="M10.15,34.39c.4-.22.8-.22,1.2,0s.6.59.6,1.13v7.42c0,.54-.2.91-.6,1.12s-.8.21-1.2,0c-.4-.21-.6-.58-.6-1.12v-7.42c0-.54.2-.91.6-1.13Z"/>
    <path class="cls-1" d="M14.28,35.68c0-.54.2-.91.6-1.12.4-.21.8-.21,1.2,0s.6.58.6,1.12v5.02c0,.54-.2.92-.6,1.13s-.8.21-1.2,0c-.4-.22-.6-.59-.6-1.13v-5.02Z"/>
    <path class="cls-1" d="M19.69,34.57c.4-.22.8-.22,1.2,0,.4.22.6.59.6,1.13v2.84c0,.54-.2.91-.6,1.12s-.8.21-1.2,0c-.4-.21-.6-.58-.6-1.12v-2.84c0-.54.2-.91.6-1.13Z"/>
    <path class="cls-1" d="M29.31,34.39c.4-.22.8-.22,1.2,0,.4.22.6.59.6,1.13v7.42c0,.54-.2.91-.6,1.12-.4.21-.8.21-1.2,0s-.6-.58-.6-1.12v-7.42c0-.54.2-.91.6-1.13Z"/>
    <path class="cls-1" d="M34.09,34.39c.4-.22.8-.22,1.2,0s.6.59.6,1.13v7.42c0,.54-.2.91-.6,1.12s-.8.21-1.2,0c-.4-.21-.6-.58-.6-1.12v-7.42c0-.54.2-.91.6-1.13Z"/>
    <path class="cls-1" d="M44.28,34.42c.34,0,.62.12.85.35.14.14.25.33.31.55.05.2.05.4,0,.61-.05.21-.15.39-.29.54-.24.23-.53.35-.86.35s-.62-.12-.85-.35c-.23-.23-.35-.52-.35-.85s.12-.62.35-.86c.23-.22.52-.34.85-.34ZM44.28,41.62c.34,0,.62.12.85.35.14.14.25.33.31.55.05.2.05.4,0,.61-.05.21-.15.38-.29.53-.23.23-.52.35-.86.35-.34,0-.63-.11-.86-.34-.23-.23-.35-.52-.35-.85s.12-.62.36-.86c.22-.22.5-.34.84-.34ZM43.98,38.04c.2-.05.41-.04.62.01.21.06.39.16.53.3.15.15.25.34.3.55.06.2.06.4,0,.61-.05.21-.15.38-.29.53-.24.24-.53.36-.86.36s-.62-.12-.86-.35c-.23-.23-.35-.52-.34-.86s.12-.63.35-.86c.15-.15.33-.25.54-.3Z"/>
    <path class="cls-1" d="M48.48,34.57c.4-.22.8-.22,1.2,0,.4.22.6.59.6,1.13v2.84c0,.54-.2.91-.6,1.12s-.8.21-1.2,0c-.4-.21-.6-.58-.6-1.12v-2.84c0-.54.2-.91.6-1.13ZM49.08,41.61c.34,0,.62.12.85.35.14.14.25.33.31.55.05.2.05.4,0,.61-.05.21-.15.39-.29.54-.24.23-.53.35-.86.35s-.62-.12-.85-.35c-.23-.23-.35-.52-.35-.85s.12-.62.35-.86c.23-.23.52-.35.85-.34Z"/>
    <path class="cls-1" d="M52.69,35.6c0-.34.12-.62.35-.85s.52-.35.85-.35.62.12.86.35c.15.15.25.34.3.55.05.2.04.4-.01.61-.06.21-.16.39-.3.54-.23.23-.52.35-.85.35s-.62-.11-.85-.34c-.23-.24-.35-.53-.35-.86ZM52.69,39.88c0-.54.2-.91.6-1.12.4-.21.8-.21,1.2,0s.6.58.6,1.12v2.84c0,.54-.2.92-.6,1.13s-.8.21-1.2,0c-.4-.22-.6-.59-.6-1.13v-2.84Z"/>
    <path class="cls-1" d="M66.03,35.02c.21.4.21.8,0,1.2s-.58.6-1.12.6h-1.43v.89c0,.76,0,1.51,0,2.26,0,.74,0,1.29,0,1.64h1.43c.54,0,.91.2,1.12.6s.21.8,0,1.2-.58.6-1.12.6h-2.53c-.42,0-.75-.11-.97-.36-.22-.25-.33-.56-.33-.92v-7.02c0-.37.11-.68.33-.92.22-.25.54-.37.97-.36h2.53c.54,0,.91.2,1.12.6Z"/>
    <path class="cls-1" d="M70.53,34.42h1.25c.42,0,.75.11.97.36.22.25.33.56.33.92v7.02c0,.37-.11.68-.33.92-.22.25-.54.37-.97.36h-2.53c-.54,0-.91-.2-1.12-.6s-.21-.8,0-1.2.58-.6,1.12-.6h1.43c0-.35,0-.9,0-1.64,0-.74,0-1.5,0-2.26v-.89h-1.43c-.54,0-.91-.2-1.12-.6s-.21-.8,0-1.2.58-.6,1.12-.6h1.28Z"/>
    <path class="cls-1" d="M77.73,34.42h1.25c.42,0,.75.11.97.36.22.25.33.56.33.92v7.02c0,.37-.11.68-.33.92-.22.25-.54.37-.97.36h-2.53c-.54,0-.91-.2-1.12-.6s-.21-.8,0-1.2.58-.6,1.12-.6h1.43c0-.35,0-.9,0-1.64,0-.74,0-1.5,0-2.26v-.89h-1.43c-.54,0-.91-.2-1.12-.6s-.21-.8,0-1.2.58-.6,1.12-.6h1.28Z"/>
    <path class="cls-1" d="M90.19,40.22c.02.73-.14,1.4-.48,2.02-.34.62-.82,1.11-1.42,1.48-.6.37-1.27.55-2,.55s-1.39-.18-2-.55c-.6-.37-1.08-.86-1.42-1.48-.34-.62-.5-1.29-.48-2.02v-2.38c.03-.69.23-1.32.59-1.88.36-.57.83-1.02,1.41-1.34s1.21-.49,1.9-.49,1.32.16,1.9.49,1.05.78,1.41,1.34c.36.57.56,1.2.59,1.88v2.38ZM85.44,41.55c.24.23.52.34.85.34s.61-.11.85-.34.35-.54.35-.94v-.96c0-.31,0-.62,0-.94,0-.31,0-.63,0-.95,0-.4-.12-.71-.35-.94s-.52-.34-.85-.34-.61.11-.85.34-.35.54-.35.94v.97c0,.31,0,.62,0,.94,0,.31,0,.62,0,.94,0,.4.12.71.35.94Z"/>
    <path class="cls-1" d="M96.12,34.4c.27,0,.5.06.7.17.19.12.34.27.43.45.13.25.17.51.13.79-.04.28-.17.51-.39.7-.22.19-.5.29-.86.29h-2.84c-.54,0-.92-.2-1.13-.6s-.21-.8,0-1.2c.22-.4.59-.6,1.13-.6h2.84ZM96.12,41.62c.27,0,.5.06.7.17.19.12.34.27.43.45.13.25.17.51.13.79-.04.28-.17.51-.39.7-.22.19-.5.29-.86.29h-2.84c-.54,0-.92-.2-1.13-.6-.21-.4-.21-.8,0-1.2.22-.4.59-.6,1.13-.6h2.84Z"/>
    <path class="cls-1" d="M103.09,34.42c.33,0,.61.12.85.37s.35.52.35.83v2.64c0,.54-.2.91-.6,1.12s-.8.21-1.2,0c-.4-.21-.6-.58-.6-1.12v-1.44h-1.43c-.54,0-.91-.2-1.12-.6s-.21-.8,0-1.2.58-.6,1.12-.6h2.63Z"/>
    <path class="cls-1" d="M108.02,44.02c-.42,0-.75-.11-.97-.36-.22-.25-.33-.56-.33-.92v-4.85c0-.54.2-.91.6-1.12s.8-.21,1.2,0c.4.21.6.58.6,1.12v3.73h3.65c.54,0,.91.2,1.12.6s.21.8,0,1.2c-.21.4-.58.6-1.12.6h-4.75Z"/>
    <path class="cls-1" d="M122.19,34.42c.42,0,.75.11.97.36.22.25.33.56.33.92v4.85c0,.54-.2.91-.6,1.12-.4.21-.8.21-1.2,0s-.6-.58-.6-1.12v-3.73h-3.65c-.54,0-.91-.2-1.12-.6-.21-.4-.21-.8,0-1.2.21-.4.58-.6,1.12-.6h4.75Z"/>
    <path class="cls-1" d="M1.09,56.67c.4-.21.8-.21,1.2,0,.4.21.6.58.6,1.12v.61c0,.22.08.41.23.57s.34.25.56.25h.65c.26,0,.48.05.67.16s.33.24.44.42c.14.24.2.5.16.79-.04.29-.17.53-.39.73-.22.2-.51.3-.87.3h-1.44c-.39,0-.77-.11-1.15-.32-.37-.21-.67-.5-.91-.88-.23-.37-.35-.78-.35-1.22v-1.42c0-.54.2-.91.6-1.12ZM5.27,51.42c.44,0,.85.12,1.22.35s.66.53.88.91c.21.37.32.75.32,1.15v1.44c0,.54-.2.91-.6,1.12-.4.21-.8.21-1.2,0s-.6-.58-.6-1.12v-.65c0-.22-.08-.41-.25-.56-.16-.15-.35-.23-.57-.23h-.61c-.27,0-.5-.06-.7-.17-.19-.12-.34-.27-.43-.45-.13-.25-.17-.51-.13-.79.04-.28.17-.51.39-.7.22-.19.5-.29.86-.29h1.42Z"/>
    <path class="cls-1" d="M17.15,51.42c.54,0,.91.2,1.12.6s.21.8,0,1.2-.58.6-1.12.6h-5.24c-.54,0-.92-.2-1.13-.6-.21-.4-.21-.8,0-1.2s.59-.6,1.13-.6h5.24ZM13.57,55.02h3.59c.54,0,.91.2,1.12.6s.21.8,0,1.2c-.21.4-.58.6-1.12.6h-5.24c-.54,0-.92-.2-1.13-.6-.21-.4-.21-.8,0-1.2s.59-.6,1.13-.6h1.66ZM17.15,58.62c.54,0,.91.2,1.12.6s.21.8,0,1.2c-.21.4-.58.6-1.12.6h-5.24c-.54,0-.92-.2-1.13-.6-.21-.4-.21-.8,0-1.2s.59-.6,1.13-.6h5.24Z"/>
    <path class="cls-1" d="M21.36,52.5c0-.54.2-.91.6-1.12.4-.21.8-.21,1.2,0,.4.21.6.58.6,1.12v7.42c0,.54-.2.92-.6,1.13-.4.21-.8.21-1.2,0-.4-.22-.6-.59-.6-1.13v-7.42ZM24.96,52.5c0-.54.2-.91.6-1.12.4-.21.8-.21,1.2,0,.4.21.6.58.6,1.12v7.42c0,.54-.2.92-.6,1.13-.4.21-.8.21-1.2,0-.4-.22-.6-.59-.6-1.13v-7.42ZM28.56,52.5c0-.54.2-.91.6-1.12.4-.21.8-.21,1.2,0,.4.21.6.58.6,1.12v7.42c0,.54-.2.92-.6,1.13-.4.21-.8.21-1.2,0-.4-.22-.6-.59-.6-1.13v-7.42Z"/>
    <path class="cls-1" d="M35.67,55.02c.16,0,.32,0,.47,0,.16,0,.31,0,.46,0v-.48c0-.16,0-.32,0-.47,0-.16,0-.31,0-.47,0-.54.2-.91.6-1.12.4-.21.8-.21,1.2,0s.6.58.6,1.12v.49c0,.16,0,.32,0,.47,0,.16,0,.31,0,.46h.48c.16,0,.32,0,.47,0,.16,0,.31,0,.47,0,.54,0,.91.2,1.12.6s.21.8,0,1.2c-.21.4-.58.6-1.12.6h-1.43v.49c0,.15,0,.31,0,.46,0,.16,0,.31,0,.46,0,.54-.2.92-.6,1.13s-.8.21-1.2,0c-.4-.22-.6-.59-.6-1.13v-.48c0-.16,0-.32,0-.47,0-.16,0-.31,0-.46h-1.42c-.54,0-.92-.2-1.13-.6-.21-.4-.21-.8,0-1.2s.59-.6,1.13-.6h.48Z"/>
    <path class="cls-1" d="M46.22,55.02c.33,0,.65,0,.97,0,.32,0,.59,0,.82,0v-.61c0-.37,0-.74,0-1.1,0-.37,0-.67,0-.91,0-.54.2-.91.6-1.12.4-.21.8-.21,1.2,0,.4.21.6.58.6,1.12v.62c0,.38,0,.74,0,1.1s0,.66,0,.9h.59c.33,0,.65,0,.98,0,.32,0,.6,0,.82,0,.27,0,.5.06.7.17.19.12.34.27.43.45.13.25.17.51.13.79-.04.28-.17.51-.39.7-.22.19-.5.29-.86.29h-2.39v.62c0,.37,0,.73,0,1.09,0,.36,0,.66,0,.9,0,.54-.2.92-.6,1.13-.4.21-.8.21-1.2,0-.4-.22-.6-.59-.6-1.13v-.61c0-.37,0-.73,0-1.1,0-.36,0-.67,0-.91h-2.38c-.54,0-.92-.2-1.13-.6-.21-.4-.21-.8,0-1.2s.59-.6,1.13-.6h.59Z"/>
    <path class="cls-1" d="M59.88,55.02c.16,0,.32,0,.47,0,.16,0,.31,0,.47,0,.27,0,.5.06.7.17.19.12.34.27.43.45.13.25.17.51.13.79-.04.28-.17.51-.39.7-.22.19-.5.29-.86.29h-1.43v.62c0,.37,0,.73,0,1.09,0,.36,0,.66,0,.9,0,.54-.2.92-.6,1.13s-.8.21-1.2,0c-.4-.22-.6-.59-.6-1.13v-.62c0-1.21,0-2.52,0-3.94,0-1.42,0-2.44,0-3.08,0-.54.2-.91.6-1.12.4-.21.8-.21,1.2,0,.4.21.6.58.6,1.12v.62c0,.38,0,.74,0,1.1,0,.36,0,.66,0,.9h.48Z"/>
    <path class="cls-1" d="M67.45,54.12c0-.36,0-.73,0-1.1v-.62c0-.54.2-.91.6-1.12.4-.21.8-.21,1.2,0,.4.21.6.58.6,1.12,0,.64.01,1.67,0,3.08,0,1.42,0,2.73,0,3.94v.62c0,.54-.2.91-.6,1.13s-.8.22-1.2,0c-.4-.22-.6-.59-.6-1.13,0-.24,0-.54,0-.9,0-.36,0-.72,0-1.09v-.62h-1.43c-.36,0-.65-.1-.86-.29-.22-.19-.35-.43-.39-.7-.04-.28,0-.54.13-.79.1-.18.24-.33.43-.45.19-.12.42-.17.7-.17.16,0,.32.01.47,0,.16,0,.31,0,.47,0h.48c0-.24,0-.54,0-.9Z"/>
    <path class="cls-1" d="M75.78,53.81c-.36,0-.73,0-1.1,0h-.62c-.54,0-.91-.2-1.12-.6s-.21-.8,0-1.2.58-.6,1.12-.6c.64,0,1.67,0,3.08,0,1.42,0,2.73,0,3.94,0h.62c.54,0,.91.2,1.13.6.22.4.22.8,0,1.2-.22.4-.59.6-1.13.6-.24,0-.54,0-.9,0-.36,0-.72,0-1.09,0h-.62v1.43c0,.36-.1.65-.29.86-.19.22-.43.35-.7.39-.28.04-.54,0-.79-.13-.18-.1-.33-.24-.45-.43-.12-.19-.17-.42-.17-.7,0-.16,0-.32,0-.47,0-.16,0-.31,0-.47v-.48c-.24,0-.54,0-.9,0Z"/>
    <path class="cls-1" d="M92.82,58.62c.36,0,.73,0,1.1,0h.62c.54,0,.91.2,1.12.6.21.4.21.8,0,1.2-.21.4-.58.6-1.12.6-.64,0-1.67,0-3.08,0s-2.73,0-3.94,0h-.62c-.54,0-.91-.2-1.13-.6-.22-.4-.22-.8,0-1.2s.59-.6,1.13-.6c.24,0,.54.01.9,0,.36,0,.72,0,1.09,0h.62v-1.43c0-.36.1-.65.29-.86.19-.22.43-.35.7-.39s.54,0,.79.13c.18.1.33.24.45.43.12.19.17.42.17.7,0,.16-.01.32,0,.47,0,.16,0,.31,0,.47v.48c.24,0,.54.01.9,0Z"/>
    <path class="cls-1" d="M106.1,59.22c.21.4.21.8,0,1.2-.21.4-.58.6-1.12.6-.44,0-1.12,0-2.04,0s-1.8,0-2.63,0h-.58c-.54,0-.91-.2-1.13-.6-.22-.4-.22-.8,0-1.2.22-.4.59-.6,1.13-.6.15,0,.31.01.46,0,.16,0,.31,0,.46,0h.49v-3.78c0-.54.2-.91.6-1.12s.8-.21,1.2,0c.4.21.6.58.6,1.12,0,.33-.01.78,0,1.36s0,1.16,0,1.73v.68c.15,0,.31.01.46,0,.16,0,.31,0,.47,0h.49c.54,0,.91.2,1.12.6Z"/>
    <path class="cls-1" d="M113.73,53.82c-.16,0-.32,0-.47,0-.16,0-.31,0-.46,0v.68c0,.58,0,1.15,0,1.73,0,.58,0,1.03,0,1.36,0,.54-.2.91-.6,1.12-.4.21-.8.21-1.2,0-.4-.21-.6-.58-.6-1.12v-3.78h-.49c-.15,0-.31,0-.46,0-.16,0-.31,0-.46,0-.54,0-.92-.2-1.13-.6s-.21-.8,0-1.2c.22-.4.59-.6,1.13-.6h.58c.83,0,1.71,0,2.63,0s1.6,0,2.04,0c.54,0,.91.2,1.12.6.21.4.21.8,0,1.2-.21.4-.58.6-1.12.6h-.49Z"/>
    <path class="cls-1" d="M118.68,60.37c-.11-.43-.2-1.01-.26-1.75-.06-.73-.1-1.53-.1-2.41s.03-1.67.1-2.41c.06-.73.15-1.31.26-1.75.11-.43.23-.65.36-.65s.25.22.36.65c.11.43.2,1.01.26,1.75.06.73.1,1.53.1,2.41s-.03,1.67-.1,2.41c-.06.73-.15,1.31-.26,1.75-.11.43-.23.65-.36.65s-.25-.22-.36-.65Z"/>
    <path class="cls-1" d="M123.48,56.78c.18,0,.33.06.45.19.13.12.19.27.19.45s-.06.33-.18.45c-.08.08-.18.13-.3.16-.11.03-.22.04-.33.01s-.2-.08-.28-.16c-.12-.12-.18-.27-.18-.46s.06-.34.18-.46.27-.18.45-.18Z"/>
  </g>
  <g>
    <path class="cls-2" d="M1.55,11.11h.29l.63,1.62h-.27l-.17-.43h-.67l-.17.43h-.28l.63-1.62ZM1.94,12.04l-.24-.62-.24.62h.48Z"/>
    <path class="cls-2" d="M4.82,11.93c0-.48.31-.85.8-.85s.79.38.79.85c0,.22-.07.42-.19.56.06.06.12.12.17.18l-.18.17c-.05-.06-.12-.12-.18-.19-.12.07-.26.11-.41.11-.46,0-.8-.36-.8-.84ZM5.83,12.47c-.07-.06-.14-.13-.2-.18l.17-.18c.07.06.14.13.22.2.07-.1.11-.23.11-.38,0-.34-.2-.59-.52-.59s-.52.26-.52.59.22.59.52.59c.08,0,.15-.02.22-.05Z"/>
    <path class="cls-2" d="M8.85,11.11h.67c.32,0,.52.2.52.46,0,.18-.1.33-.28.4.21.12.14.4.32.75h-.29c-.12-.2-.1-.7-.39-.7h-.3v.7h-.26v-1.62ZM9.52,11.78c.15,0,.26-.09.26-.21s-.1-.2-.26-.2h-.41v.41h.41Z"/>
    <path class="cls-2" d="M12.7,12.27l.25-.06c.04.2.17.3.38.3s.35-.09.35-.22c0-.12-.12-.2-.4-.28-.38-.11-.55-.28-.55-.51,0-.26.22-.43.58-.43.33,0,.53.15.6.44l-.27.06c-.04-.16-.15-.24-.35-.24-.18,0-.3.06-.3.18,0,.1.1.17.38.26.4.12.57.29.57.53,0,.28-.24.47-.6.47s-.59-.18-.65-.5Z"/>
    <path class="cls-2" d="M19.35,11.84h-.18v-.25h.18v-.22c0-.19.1-.29.32-.29.05,0,.11,0,.17.02v.24s-.07-.01-.1-.01c-.1,0-.13.04-.13.12v.13h.22v.25h-.22v.89h-.26v-.89Z"/>
    <path class="cls-2" d="M28.98,12.91l.24-.1c.06.12.16.17.25.17.14,0,.26-.1.26-.26v-.15c-.08.09-.18.13-.29.13-.28,0-.49-.25-.49-.57s.2-.57.5-.57c.1,0,.21.03.29.14v-.12h.26v1.15c0,.33-.22.52-.52.52-.21,0-.39-.1-.49-.32ZM29.73,12.12c0-.18-.11-.31-.26-.31s-.26.14-.26.31.11.32.26.32.26-.13.26-.31Z"/>
    <path class="cls-2" d="M38.69,11.1h.26v.6c.11-.11.23-.15.37-.15.25,0,.42.16.42.45v.73h-.26v-.68c0-.17-.09-.24-.22-.24-.14,0-.26.09-.31.25v.67h-.26v-1.62Z"/>
    <path class="cls-2" d="M48.7,11.11h.66c.34,0,.53.15.53.42,0,.15-.06.27-.18.34.16.06.25.2.25.38,0,.28-.24.48-.58.48h-.68v-1.62ZM49.31,11.75c.2,0,.32-.07.32-.2s-.11-.19-.3-.19h-.37v.39h.35ZM49.38,12.47c.2,0,.32-.08.32-.23s-.12-.24-.33-.24h-.4v.47h.41Z"/>
    <path class="cls-2" d="M58.38,11.94c0-.5.35-.87.82-.87.32,0,.58.17.71.46l-.27.08c-.09-.18-.25-.28-.45-.28-.32,0-.54.25-.54.6s.22.58.52.58c.23,0,.4-.12.49-.33l.26.06c-.12.34-.39.53-.74.53-.47,0-.8-.34-.8-.83Z"/>
    <path class="cls-2" d="M65.58,11.11h.27l.28,1.1.31-1.1h.25l.31,1.1.27-1.1h.27l-.43,1.62h-.21l-.33-1.17-.34,1.17h-.22l-.43-1.62Z"/>
    <path class="cls-2" d="M73.9,11.89l-.54-.78h.31l.38.56.38-.56h.32l-.54.78.58.83h-.32l-.41-.61-.42.61h-.32l.58-.84Z"/>
    <path class="cls-2" d="M83.69,11.11h.57c.5,0,.77.31.77.8s-.27.82-.77.82h-.57v-1.62ZM84.22,12.48c.35,0,.54-.19.54-.56s-.2-.54-.54-.54h-.28v1.11h.28Z"/>
    <path class="cls-2" d="M92.73,12.39h-.69v-.23l.73-1.02h.21v1h.18v.25h-.18v.34h-.25v-.34ZM92.73,12.14v-.54l-.4.54h.4Z"/>
    <path class="cls-2" d="M98.46,12.37l.26-.06c.05.14.16.2.28.2.18,0,.29-.12.29-.3s-.13-.3-.29-.3c-.12,0-.21.07-.27.16l-.22-.1.05-.82h.88v.25h-.65l-.02.32c.09-.04.17-.06.25-.06.31,0,.52.23.52.55s-.21.56-.56.56c-.26,0-.45-.12-.53-.39Z"/>
    <path class="cls-2" d="M104.77,11.97c0-.54.22-.84.6-.84.25,0,.41.13.48.36l-.25.06c-.04-.12-.12-.17-.23-.17-.2,0-.32.18-.34.49.1-.11.21-.15.35-.15.3,0,.51.21.51.51s-.22.54-.55.54c-.37,0-.57-.27-.57-.79ZM105.63,12.23c0-.16-.1-.26-.26-.26-.14,0-.25.08-.3.2.01.21.13.34.3.34.16,0,.27-.12.27-.28Z"/>
    <path class="cls-2" d="M112.05,11.38h-.73v-.25h1.08v.2c-.34.4-.54.69-.58,1.4h-.27c.03-.56.18-.94.5-1.35Z"/>
    <path class="cls-2" d="M120.83,11.57c-.11.1-.28.14-.42.14v-.25c.25,0,.41-.17.45-.34h.23v1.6h-.25v-1.16Z"/>
    <path class="cls-2" d="M5.18,28.99c.26-.2.33-.3.33-.42,0-.14-.09-.2-.24-.2-.18,0-.28.1-.29.29l-.26-.05c.03-.3.24-.49.55-.49s.5.2.5.45c0,.14-.05.31-.37.54-.2.15-.29.25-.34.36h.72v.26h-1.06c.02-.27.12-.5.45-.74Z"/>
    <path class="cls-2" d="M16.21,29.32l.26-.04c.04.18.15.25.29.25.16,0,.28-.09.28-.24,0-.14-.1-.25-.27-.25h-.16v-.25h.17c.13,0,.2-.09.2-.2,0-.12-.09-.21-.22-.21-.14,0-.23.09-.25.21l-.26-.04c.05-.26.22-.42.51-.42s.48.17.48.43c0,.15-.06.27-.17.33.15.06.24.2.24.4,0,.29-.22.47-.54.47-.3,0-.49-.15-.56-.45Z"/>
    <path class="cls-2" d="M24.74,28.11h.26v.66h.75v-.66h.26v1.62h-.26v-.7h-.75v.7h-.26v-1.62Z"/>
    <path class="cls-2" d="M32.7,28.11h.26v1.62h-.26v-1.62Z"/>
    <path class="cls-2" d="M42.23,29.3l.26-.03c.02.17.13.24.27.24.16,0,.28-.1.28-.3v-1.1h.26v1.1c0,.36-.22.56-.54.56-.28,0-.49-.16-.53-.47Z"/>
    <path class="cls-2" d="M50.84,28.11h.26v.69l.73-.69h.35l-.68.64.74.98h-.33l-.6-.8-.22.21v.59h-.26v-1.62Z"/>
    <path class="cls-2" d="M58.64,28.11h.26v1.36h.87v.26h-1.13v-1.62Z"/>
    <path class="cls-2" d="M68.29,28.11h.28l.5,1.26.49-1.26h.28v1.62h-.26v-1l-.39,1h-.25l-.4-1v1h-.26v-1.62Z"/>
    <path class="cls-2" d="M77.19,28.11h.25l.76,1.15v-1.15h.26v1.62h-.25l-.76-1.16v1.16h-.26v-1.62Z"/>
    <path class="cls-2" d="M84.66,28.93c0-.48.31-.85.8-.85s.79.38.79.85-.33.84-.79.84-.8-.36-.8-.84ZM85.97,28.93c0-.34-.2-.59-.52-.59s-.52.26-.52.59.22.59.52.59.52-.24.52-.59Z"/>
    <path class="cls-2" d="M94.84,28.11h.66c.32,0,.52.21.52.48s-.2.48-.52.48h-.4v.66h-.26v-1.62ZM95.5,28.81c.15,0,.26-.09.26-.23s-.1-.22-.26-.22h-.39v.45h.39Z"/>
    <path class="cls-2" d="M103.94,28.37h-.52v-.26h1.3v.26h-.52v1.36h-.26v-1.36Z"/>
    <path class="cls-2" d="M111.14,29.13v-1.02h.26v1.02c0,.26.13.39.36.39s.37-.12.37-.38v-1.02h.26v1.02c0,.42-.25.64-.63.64s-.62-.22-.62-.64Z"/>
    <path class="cls-2" d="M121.01,28.11h.28l.4,1.13.4-1.13h.28l-.58,1.62h-.18l-.59-1.62Z"/>
    <path class="cls-2" d="M1.16,45.11h1.13v.26h-.87v.4h.8v.26h-.8v.45h.89v.26h-1.15v-1.62Z"/>
    <path class="cls-2" d="M6.03,45.11h1.11v.26h-.86v.4h.75v.26h-.75v.7h-.26v-1.62Z"/>
    <path class="cls-2" d="M10.49,45.94c0-.47.28-.87.75-.87.32,0,.55.18.65.47l-.26.06c-.08-.18-.22-.26-.4-.26-.31,0-.49.27-.49.6,0,.37.21.57.47.57.21,0,.39-.15.43-.39h-.38v-.26h.65v.87h-.23l-.02-.17c-.1.13-.27.21-.46.21-.42,0-.71-.34-.71-.83Z"/>
    <path class="cls-2" d="M15.64,45.57h.26v.14c.11-.11.23-.15.37-.15.25,0,.42.16.42.45v.73h-.26v-.68c0-.17-.09-.24-.22-.24-.14,0-.26.09-.31.25v.67h-.26v-1.16Z"/>
    <path class="cls-2" d="M20.42,46.15c0-.35.26-.6.59-.6s.59.26.59.6-.26.6-.59.6-.59-.26-.59-.6ZM21.34,46.15c0-.2-.15-.35-.33-.35s-.33.15-.33.35.15.35.33.35.33-.15.33-.35Z"/>
    <path class="cls-2" d="M27.54,45.99l-.59-.88h.3l.42.64.42-.64h.29l-.58.88v.74h-.26v-.74Z"/>
    <path class="cls-2" d="M37.06,46.57l.83-1.2h-.82v-.26h1.2v.17l-.83,1.19h.83v.26h-1.22v-.16Z"/>
    <path class="cls-2" d="M44.43,45.1h.26v.85l.4-.39h.35l-.43.43.46.73h-.29l-.35-.55-.13.13v.42h-.26v-1.63Z"/>
    <path class="cls-2" d="M49.66,45.1h.26v1.63h-.26v-1.63Z"/>
    <path class="cls-2" d="M53.64,45.57h.26v.13c.09-.1.2-.15.31-.15.13,0,.24.07.32.21.1-.14.23-.21.39-.21.24,0,.41.16.41.41v.77h-.26v-.68c0-.16-.07-.25-.18-.25-.12,0-.24.1-.28.25v.68h-.26v-.67c0-.17-.07-.26-.18-.26-.12,0-.24.1-.28.25v.68h-.26v-1.16Z"/>
    <path class="cls-2" d="M63.29,45.57h.27l.28.75.28-.75h.27l-.45,1.16h-.2l-.45-1.16Z"/>
    <path class="cls-2" d="M70.53,45.57h.27l.21.72.22-.72h.26l.22.72.21-.72h.27l-.37,1.16h-.21l-.24-.79-.25.79h-.21l-.37-1.16Z"/>
    <path class="cls-2" d="M78.28,46.14l-.42-.57h.33l.26.35.26-.35h.33l-.42.57.45.59h-.33l-.28-.37-.28.37h-.33l.45-.59Z"/>
    <path class="cls-2" d="M85.92,46.97c.17,0,.23-.04.27-.15l.08-.21-.4-1.05h.27l.26.68.25-.68h.27l-.5,1.35c-.09.25-.2.32-.5.31v-.26Z"/>
    <path class="cls-2" d="M94.29,46.66c0-.17.12-.28.3-.33.27-.07.41-.11.41-.19,0-.06-.07-.1-.17-.1-.13,0-.21.06-.25.16l-.24-.09c.06-.21.24-.32.49-.32.28,0,.45.15.45.42v.47c0,.06.05.1.11.08v.22s-.08.02-.11.02c-.09,0-.17-.05-.21-.12-.09.07-.23.12-.36.12-.24,0-.41-.13-.41-.33ZM95.02,46.64v-.23c-.24.12-.47.09-.47.23,0,.08.07.12.17.12.11,0,.23-.05.29-.12Z"/>
    <path class="cls-2" d="M101.75,46.61v.12h-.26v-1.63h.26v.57c.08-.09.19-.13.3-.13.28,0,.49.26.49.6s-.2.6-.5.6c-.12,0-.22-.04-.3-.15ZM102.28,46.16c0-.19-.11-.34-.26-.34s-.26.15-.26.35.11.34.26.34.26-.15.26-.34Z"/>
    <path class="cls-2" d="M109.56,46.15c0-.35.22-.6.54-.6s.52.24.52.6v.09h-.79c.02.16.13.26.29.26.12,0,.22-.06.28-.17l.2.12c-.11.2-.28.3-.49.3-.34,0-.55-.25-.55-.61ZM110.34,46.02c-.02-.13-.11-.22-.24-.22s-.24.09-.26.22h.51Z"/>
    <path class="cls-2" d="M119.15,46.15c0-.35.22-.6.52-.6.23,0,.4.14.48.36l-.25.06c-.05-.12-.13-.17-.22-.17-.16,0-.27.15-.27.34s.11.35.26.35c.11,0,.2-.08.23-.22l.25.06c-.07.27-.25.41-.48.41-.33,0-.53-.26-.53-.61Z"/>
    <path class="cls-2" d="M3.6,63.15c0-.35.21-.61.49-.61.11,0,.22.04.3.13v-.57h.26v1.63h-.26v-.12c-.08.11-.18.15-.3.15-.29,0-.49-.26-.49-.6ZM4.39,63.16c0-.19-.11-.35-.27-.35s-.26.15-.26.34.11.34.26.34.26-.15.26-.34Z"/>
    <path class="cls-2" d="M14.39,62.22c0-.09.07-.16.16-.16s.17.07.17.16-.07.16-.17.16-.16-.07-.16-.16ZM14.43,62.57h.26v1.16h-.26v-1.16Z"/>
    <path class="cls-2" d="M25.67,64.19v-.26c.07.02.11.03.15.03.09,0,.13-.05.13-.16v-1.23h.26v1.28c0,.26-.11.38-.32.38-.07,0-.15-.02-.22-.04ZM25.91,62.22c0-.09.07-.16.17-.16s.16.07.16.16-.07.16-.16.16-.17-.07-.17-.16Z"/>
    <path class="cls-2" d="M37.43,62.57h.26v.13c.08-.11.18-.15.3-.15.29,0,.5.26.5.6s-.21.6-.5.6c-.12,0-.22-.04-.3-.13v.58h-.26v-1.64ZM38.23,63.15c0-.19-.11-.34-.27-.34s-.26.15-.26.34.11.35.27.35.27-.15.27-.34Z"/>
    <path class="cls-2" d="M49.61,63.63c-.08.09-.19.13-.3.13-.29,0-.5-.26-.5-.6s.21-.6.5-.6c.12,0,.23.04.3.15v-.13h.26v1.64h-.26v-.58ZM49.61,63.14c0-.19-.11-.34-.27-.34s-.27.15-.27.34.11.34.27.34.27-.16.27-.35Z"/>
    <path class="cls-2" d="M58.46,62.57h.26v.15c.09-.12.21-.17.39-.16v.3c-.26,0-.39.11-.39.34v.53h-.26v-1.16Z"/>
    <path class="cls-2" d="M67.41,63.42l.23-.07c.04.12.14.17.28.17.12,0,.2-.04.2-.1s-.08-.11-.26-.17c-.29-.09-.42-.22-.42-.38,0-.2.18-.32.44-.32.25,0,.41.11.49.32l-.24.07c-.04-.11-.12-.15-.25-.15-.11,0-.18.04-.18.1s.06.1.24.15c.3.09.43.2.43.37,0,.21-.18.34-.46.34s-.44-.12-.5-.34Z"/>
    <path class="cls-2" d="M77.65,63.41v-.59h-.19v-.25h.19v-.33h.26v.33h.23v.25h-.23v.53c0,.12.04.15.11.15h.14v.25s-.09,0-.14,0c-.25,0-.35-.1-.35-.35Z"/>
    <path class="cls-2" d="M90.26,63.29v-.72h.26v.69c0,.16.09.23.21.23.13,0,.27-.1.32-.26v-.66h.26v1.16h-.26v-.14c-.11.12-.23.17-.37.17-.26,0-.42-.17-.42-.46Z"/>
    <path class="cls-2" d="M101.83,63.54l.53-.71h-.52v-.26h.89v.21l-.52.7h.52v.26h-.9v-.19Z"/>
    <path class="cls-2" d="M111.06,62.95c0-.53.18-.82.55-.82s.55.29.55.82-.18.81-.55.81-.55-.29-.55-.81ZM111.89,62.95c0-.4-.11-.57-.29-.57s-.29.17-.29.57.11.56.29.56.29-.18.29-.56Z"/>
    <path class="cls-2" d="M118.5,63.27c0-.15.06-.29.23-.39-.11-.07-.18-.18-.18-.32,0-.25.2-.42.5-.42s.5.18.5.42c0,.14-.07.26-.18.32.16.1.23.24.23.39,0,.29-.22.49-.54.49s-.54-.2-.54-.49ZM119.32,63.26c0-.16-.12-.26-.28-.26s-.28.1-.28.26.11.25.28.25.28-.1.28-.25ZM119.27,62.57c0-.11-.1-.19-.23-.19s-.23.08-.23.19.1.19.23.19.23-.08.23-.19Z"/>
    <path class="cls-2" d="M123.03,63.39l.25-.06c.04.12.12.17.23.17.19,0,.31-.18.34-.49-.1.11-.22.16-.35.16-.29,0-.51-.21-.51-.52s.22-.54.55-.54c.37,0,.57.27.57.79s-.22.84-.6.84c-.25,0-.41-.13-.48-.36ZM123.82,62.71c0-.21-.13-.34-.3-.34-.16,0-.27.12-.27.28s.1.28.27.28c.14,0,.24-.09.3-.21Z"/>
  </g>
</svg>