<?xml version="1.0" encoding="UTF-8"?>
<svg xmlns="http://www.w3.org/2000/svg" version="1.1" viewBox="0 0 121.9 121.9">
  <defs>
    <style>
      .cls-1 {
        fill: #1044ff;
      }

      .cls-1, .cls-2, .cls-3 {
        mix-blend-mode: multiply;
      }

      .cls-1, .cls-4, .cls-5, .cls-3, .cls-6 {
        stroke-width: 0px;
      }

      .cls-7 {
        fill: #f4dc51;
        stroke: #f0b;
      }

      .cls-7, .cls-2 {
        stroke-miterlimit: 10;
        stroke-width: 7px;
      }

      .cls-2 {
        fill: #0cf;
        stroke: #0079ff;
      }

      .cls-4 {
        fill: #f0b;
      }

      .cls-5 {
        fill: #000;
      }

      .cls-3 {
        fill: #27c2e9;
      }

      .cls-8 {
        isolation: isolate;
      }

      .cls-6 {
        fill: #fff;
      }
    </style>
  </defs>
  <g class="cls-8">
    <g id="Layer_1" data-name="Layer 1">
      <path class="cls-5" d="M-223.6-97.5h-68.8c-6.6,0-12,5.4-12,12V-30c0,6.6,5.4,12,12,12h68.8c6.6,0,12-5.4,12-12v-55.4c0-6.6-5.4-12-12-12ZM-236.1-86.1c5.8,0,10.4,4.7,10.4,10.4s-4.7,10.4-10.4,10.4-10.4-4.7-10.4-10.4,4.7-10.4,10.4-10.4ZM-225.3-26.1h-65c-2.5,0-5.5-1.9-5.5-6.1,0-7.4,5.4-29.9,17-29.9s19.2,19.6,23.1,19.6c5.1-.1,8.9-9.4,17.4-9.4s17.5,15.2,17.5,20.7-1.8,5.2-4.4,5.2Z"/>
      <rect class="cls-3" x="-436.2" y="200.3" width="34.8" height="34.3"/>
      <path class="cls-7" d="M61.9-126.2c28.5,0,51.6,23.1,51.6,51.6s-23.1,51.6-51.6,51.6"/>
      <polyline class="cls-2" points="61.9 -23 61.9 -23 10.3 -23 10.3 -126.2 61.9 -126.2"/>
      <path class="cls-4" d="M61.9-26.3c-26.7,0-48.3-21.6-48.3-48.3s21.6-48.3,48.3-48.3"/>
      <path class="cls-4" d="M64.6,4.1c31.3,0,56.7,25.4,56.7,56.7s-25.4,56.7-56.7,56.7"/>
      <polyline class="cls-1" points="65.2 117.5 65.2 117.5 4 117.5 4 4.4 65.2 4.4"/>
      <rect class="cls-3" x="-306.2" y="200.3" width="34.8" height="34.3"/>
      <path class="cls-6" d="M65.2,103.1c-23.3,0-42.2-18.9-42.2-42.2s18.9-42.2,42.2-42.2"/>
    </g>
  </g>
</svg>