<?xml version="1.0" encoding="UTF-8"?>
<svg id="Layer_1" data-name="Layer 1" xmlns="http://www.w3.org/2000/svg" version="1.1" viewBox="0 0 98.3 85.8">
  <defs>
    <style>
      .cls-1 {
        fill: #000;
        stroke-width: 0px;
      }
    </style>
  </defs>
  <path class="cls-1" d="M83.6,3.2H14.8c-6.6,0-12,5.4-12,12v55.4c0,6.6,5.4,12,12,12h68.8c6.6,0,12-5.4,12-12V15.2c0-6.6-5.4-12-12-12ZM71,14.5c5.8,0,10.4,4.7,10.4,10.4s-4.7,10.4-10.4,10.4-10.4-4.7-10.4-10.4,4.7-10.4,10.4-10.4ZM81.9,74.5H16.8c-2.5,0-5.5-1.9-5.5-6.1,0-7.4,5.4-29.9,17-29.9s19.2,19.6,23.1,19.6c5.1-.1,8.9-9.4,17.4-9.4s17.5,15.2,17.5,20.7-1.8,5.2-4.4,5.2Z"/>
</svg>