<?xml version="1.0" encoding="UTF-8"?>
<svg id="Layer_1" data-name="Layer 1" xmlns="http://www.w3.org/2000/svg" viewBox="0 0 127.17 65.62">
  <defs>
    <style>
      .cls-1 {
        fill: #231f20;
      }

      .cls-1, .cls-2 {
        stroke-width: 0px;
      }

      .cls-2 {
        fill: #fff;
      }
    </style>
  </defs>
  <g>
    <path class="cls-1" d="M1.7,7.99h1.19v2.4H.49v-2.4h1.21Z"/>
    <path class="cls-1" d="M5.54,3.19h1.19v.82c0,.26,0,.53,0,.79,0,.26,0,.53,0,.79h-2.4v-2.4h1.21Z"/>
    <path class="cls-1" d="M9.38,5.59h1.19v.82c0,.26,0,.53,0,.79,0,.26,0,.53,0,.79h-2.4v-2.4h1.21Z"/>
    <path class="cls-1" d="M13.22.79h1.19v.82c0,.26,0,.53,0,.79,0,.26,0,.53,0,.79h-2.4V.79h1.21Z"/>
    <path class="cls-1" d="M20.35,10.39h-4.5V3.19h7.2v7.2h-2.7ZM19.46,7.99h1.19v-.82c0-.26,0-.53,0-.79,0-.26,0-.53,0-.79h-2.4v.82c0,.26,0,.53,0,.79,0,.26,0,.53,0,.79h1.21Z"/>
    <path class="cls-1" d="M30.5,10.39h-6.02V.79h9.62v9.6h-3.61ZM28.7,7.99h3.01V3.19h-4.82v1.63c0,.53,0,1.06,0,1.58,0,.53,0,1.06,0,1.58h1.81Z"/>
    <path class="cls-1" d="M40.05,7.99h-4.5V.79h7.2v7.2h-2.7ZM39.16,5.59h1.19v-.82c0-.26,0-.53,0-.79,0-.26,0-.53,0-.79h-2.4v.82c0,.26,0,.53,0,.79,0,.26,0,.53,0,.79h1.21Z"/>
    <path class="cls-1" d="M44.19,5.29V.79h9.6v7.2h-9.6v-2.7ZM48.39,5.59h3v-2.4h-4.8v2.4h1.8Z"/>
    <path class="cls-1" d="M57.93,3.19h4.5v7.2h-7.2V3.19h2.7Z"/>
    <path class="cls-1" d="M65.79.79h3v3.25c0,1.06,0,2.13,0,3.19,0,1.06,0,2.11,0,3.16h-4.8V.79h1.8Z"/>
    <path class="cls-1" d="M71.74.79h5.81v9.6h-7.2V.79h1.39Z"/>
    <path class="cls-1" d="M82.71.79h6v3.25c0,1.06,0,2.13,0,3.19s0,2.11,0,3.16h-9.6V.79h3.6Z"/>
    <path class="cls-1" d="M90.27,3.19h.82c.26,0,.53,0,.79,0s.52,0,.78,0h.83c.26,0,.53,0,.79,0,.26,0,.53,0,.79,0v7.2h-4.8V3.19Z"/>
    <path class="cls-1" d="M96.63.79h.82c.26,0,.53,0,.79,0,.26,0,.52,0,.78,0h.83c.26,0,.53,0,.79,0,.26,0,.53,0,.79,0v7.2h-4.8V.79Z"/>
    <path class="cls-1" d="M104.79,5.59h3v1.63c0,.53,0,1.06,0,1.58,0,.53,0,1.06,0,1.58h-4.8v-4.8h1.8Z"/>
    <path class="cls-1" d="M111.15.79h3v1.63c0,.53,0,1.06,0,1.58,0,.53,0,1.06,0,1.58h-4.8V.79h1.8Z"/>
    <path class="cls-1" d="M125.31,3.19v.82c0,.26,0,.53,0,.79,0,.26,0,.52,0,.78v.83c0,.26,0,.53,0,.79,0,.26,0,.53,0,.79h-9.6V3.19h9.6Z"/>
    <path class="cls-1" d="M10.09,17.79v.82c0,.26,0,.53,0,.79,0,.26,0,.52,0,.78v.83c0,.26,0,.53,0,.79,0,.26,0,.53,0,.79H.49v-4.8h9.6Z"/>
    <path class="cls-1" d="M21.26,22.59v.82c0,.26,0,.53,0,.79,0,.26,0,.52,0,.78v.83c0,.26,0,.53,0,.79s0,.53,0,.79h-9.6v-4.8h9.6Z"/>
    <path class="cls-1" d="M22.83,27.39v-2.4h4.8v2.4h-4.8Z"/>
    <path class="cls-1" d="M36.4,24.99v2.4h-7.2v-2.4h7.2Z"/>
    <path class="cls-1" d="M47.57,24.99v2.4h-9.6v-2.4h9.6Z"/>
    <path class="cls-1" d="M53.82,22.59v2.4h-4.8v-2.4h4.8Z"/>
    <path class="cls-1" d="M62.6,22.59v2.4h-7.2v-2.4h7.2Z"/>
    <path class="cls-1" d="M73.77,22.59v2.4h-9.6v-2.4h9.6Z"/>
    <path class="cls-1" d="M80.14,20.19v2.4h-4.8v-2.4h4.8Z"/>
    <path class="cls-1" d="M88.91,20.19v2.4h-7.2v-2.4h7.2Z"/>
    <path class="cls-1" d="M100.09,20.19v2.4h-9.6v-2.4h9.6Z"/>
    <path class="cls-1" d="M106.46,17.79v2.4h-4.8v-2.4h4.8Z"/>
    <path class="cls-1" d="M115.23,17.79v2.4h-7.2v-2.4h7.2Z"/>
    <path class="cls-1" d="M126.4,17.79v2.4h-9.6v-2.4h9.6Z"/>
    <path class="cls-1" d="M1.39,39.59h1.5v1.63c0,.53,0,1.06,0,1.58,0,.53,0,1.06,0,1.58H.49v-4.8h.9Z"/>
    <path class="cls-1" d="M6.18,37.19h1.5v2.45c0,.79,0,1.58,0,2.38,0,.79,0,1.58,0,2.38h-2.4v-7.2h.9Z"/>
    <path class="cls-1" d="M10.99,34.79h1.5v3.25c0,1.06,0,2.13,0,3.19,0,1.06,0,2.11,0,3.16h-2.4v-9.6h.9Z"/>
    <path class="cls-1" d="M14.89,34.81h2.4v2.44c0,.79,0,1.58,0,2.38,0,.79,0,1.58,0,2.36h-2.4v-7.18Z"/>
    <path class="cls-1" d="M20.59,34.81h1.5c0-.67-.01-.09,0,1.75,0,1.84,0,2.85,0,3.03h-2.4v-4.78h.9Z"/>
    <path class="cls-1" d="M30.18,34.79h1.5v9.6h-2.4v-3.25c0-1.06,0-2.13,0-3.19,0-1.06,0-2.11,0-3.16h.9Z"/>
    <path class="cls-1" d="M34.99,34.79h1.5v3.25c0,1.06,0,2.13,0,3.19,0,1.06,0,2.11,0,3.16h-2.4v-9.6h.9Z"/>
    <path class="cls-1" d="M44.9,34.79h1.19v.82c0,.26,0,.53,0,.79,0,.26,0,.53,0,.79h-2.4v-2.4h1.21ZM44.49,38.39c.26,0,.53,0,.79,0,.26,0,.53,0,.8,0v.82c0,.26,0,.53,0,.79,0,.26,0,.53,0,.79h-2.4v-2.4h.8ZM44.9,41.99h1.19v.82c0,.26,0,.53,0,.79,0,.26,0,.53,0,.79h-2.4v-2.4h1.21Z"/>
    <path class="cls-1" d="M49.39,34.79h1.5v1.63c0,.53,0,1.06,0,1.58,0,.53,0,1.06,0,1.58h-2.4v-4.8h.9ZM49.7,41.99h1.19v.82c0,.26,0,.53,0,.79,0,.26,0,.53,0,.79h-2.4v-2.4h1.21Z"/>
    <path class="cls-1" d="M53.28,36v-1.19h2.4v.82c0,.26,0,.53,0,.79,0,.26,0,.53,0,.79h-2.4v-1.21ZM53.28,39.61h2.4v1.63c0,.53,0,1.06,0,1.58,0,.53,0,1.06,0,1.58h-2.4v-4.8Z"/>
    <path class="cls-1" d="M64.99,34.77h1.5v.82c0,.26,0,.53,0,.79,0,.26,0,.53,0,.79h-2.4v1.64c0,.53,0,1.06,0,1.58,0,.53,0,1.06,0,1.58h2.4v.82c0,.26,0,.53,0,.79,0,.26,0,.53,0,.79h-4.8v-9.6h2.4c.4-.01.7-.01.9-.01Z"/>
    <path class="cls-1" d="M71.28,34.79h2.4v9.6h-4.8c0-.26,0-.53,0-.79s0-.53,0-.79v-.82h2.4c0-.53,0-1.06,0-1.58,0-.53,0-1.06,0-1.58v-1.64h-2.4c0-.26,0-.53,0-.79,0-.26,0-.53,0-.79v-.82h2.4Z"/>
    <path class="cls-1" d="M78.49,37.17h-2.4v-2.4h2.4v2.4ZM78.49,44.39h-2.4v-2.4h2.4v2.4ZM78.49,44.39v-9.6h2.4v9.6h-2.4Z"/>
    <path class="cls-1" d="M91.68,44.39h-7.2v-9.6h7.2v9.6ZM87.51,41.99h1.78v-1.62c0-.54,0-1.07,0-1.6,0-.53,0-1.06,0-1.58h-2.4v1.63c0,.53,0,1.06,0,1.58,0,.53,0,1.06,0,1.58h.62Z"/>
    <path class="cls-1" d="M98.89,34.79v2.4h-4.8v-2.4h4.8ZM98.89,41.99v2.4h-4.8v-2.4h4.8Z"/>
    <path class="cls-1" d="M105.3,34.79h.78v.97c0,.71,0,1.42,0,2.12,0,.7,0,1.27,0,1.7h-2.4v-2.4h-2.4v-2.4h4.02Z"/>
    <path class="cls-1" d="M108.49,44.39v-7.2h2.4v4.8h4.8v2.4h-7.2Z"/>
    <path class="cls-1" d="M125.28,34.79v7.2h-2.4v-4.8h-4.8v-2.4h7.2Z"/>
    <path class="cls-1" d="M3.49,61.39H.49s-.04,0,0,0,.04,0,0,0v-4.8h2.4v2.4h2.4v.82c0,.26,0,.53,0,.79,0,.26,0,.53,0,.79h-1.8ZM7.68,51.79s.05,0,.03,0h-.06s-.01,0,.03,0v4.8h-2.4v-.73c0-.3,0-.59,0-.87,0-.28,0-.55,0-.8h-2.4v-2.4h4.8Z"/>
    <path class="cls-1" d="M18.12,51.79v2.4h-7.2v-2.4h7.2ZM13.36,55.39c.8,0,1.6,0,2.39,0,.79,0,1.58,0,2.38,0v2.4h-7.2v-2.4h2.44ZM18.12,58.99v2.4h-7.2v-2.4h7.2Z"/>
    <path class="cls-1" d="M21.37,51.79h2.4v3.25c0,1.06,0,2.13,0,3.19,0,1.06,0,2.11,0,3.16h-2.4v-9.6ZM24.97,51.79h2.4v9.6h-2.4v-9.6ZM28.56,51.79h2.4v3.25c0,1.06,0,2.13,0,3.19s0,2.11,0,3.16h-2.4v-9.6Z"/>
    <path class="cls-1" d="M35.01,55.39c.26,0,.53,0,.79,0,.26,0,.53,0,.8,0v-.82c0-.26,0-.53,0-.79,0-.26,0-.53,0-.79h2.4v.82c0,.26,0,.53,0,.79,0,.26,0,.53,0,.79h.82c.26,0,.53,0,.79,0,.26,0,.53,0,.79,0v2.4h-2.4v.82c0,.26,0,.53,0,.79,0,.26,0,.53,0,.79h-2.4v-.82c0-.26,0-.53,0-.79,0-.26,0-.53,0-.79h-2.4v-2.4h.8Z"/>
    <path class="cls-1" d="M45.73,55.39c.38,0,.75,0,1.13,0,.38,0,.76,0,1.15,0v-3.6h2.4v3.6h1.2c.38,0,.75,0,1.13,0,.38,0,.76,0,1.15,0v2.4h-3.48v3.6h-2.4v-3.6h-3.48v-2.4h1.2Z"/>
    <path class="cls-1" d="M60.22,55.39c.26,0,.53,0,.79,0,.26,0,.53,0,.79,0v2.4h-2.4v1.22c0,.4,0,.8,0,1.19,0,.4,0,.79,0,1.18h-2.4v-9.6h2.4v1.22c0,.4,0,.8,0,1.19,0,.4,0,.79,0,1.18h.82Z"/>
    <path class="cls-1" d="M67.45,54.2c0-.4,0-.79,0-1.19v-1.22h2.4v9.6h-2.4c0-.39,0-.79,0-1.18s0-.79,0-1.19v-1.22h-2.4v-2.4c.26,0,.53.01.79,0,.26,0,.53,0,.79,0h.82c0-.39,0-.79,0-1.18Z"/>
    <path class="cls-1" d="M75.5,54.18c-.4,0-.79,0-1.19,0h-1.22v-2.4h9.6v2.4c-.39,0-.79,0-1.18,0-.4,0-.79,0-1.19,0h-1.22v2.4h-2.4c0-.26,0-.53,0-.79,0-.26,0-.53,0-.79v-.82c-.39,0-.79,0-1.18,0Z"/>
    <path class="cls-1" d="M93.11,58.99c.4,0,.79,0,1.19,0h1.22v2.4h-9.6v-2.4c.39,0,.79.01,1.18,0,.4,0,.79,0,1.19,0h1.22v-2.4h2.4c0,.26-.01.53,0,.79,0,.26,0,.53,0,.79v.82c.39,0,.79.01,1.18,0Z"/>
    <path class="cls-1" d="M105.96,59.89v1.5h-7.2v-2.4h2.4c0-.53,0-1.06,0-1.58,0-.53,0-1.06,0-1.58v-1.63h2.4c0,.53.01,1.06,0,1.58,0,.53,0,1.06,0,1.6v1.62h2.4v.9Z"/>
    <path class="cls-1" d="M114.4,54.19h-1.6v1.62c0,.54,0,1.07,0,1.6,0,.53,0,1.06,0,1.58h-2.4v-1.63c0-.53,0-1.06,0-1.58,0-.53,0-1.06,0-1.58h-2.4v-2.4h7.2v2.4h-.8Z"/>
    <path class="cls-1" d="M118.45,57.79v-6h1.2v9.6h-1.2v-3.6Z"/>
    <path class="cls-1" d="M123.49,57.19h.59v1.2h-.41c-.14,0-.27,0-.4,0-.13,0-.26,0-.39,0v-1.2h.61Z"/>
  </g>
  <g>
    <path class="cls-2" d="M1.55,11.11h.29l.63,1.62h-.27l-.17-.43h-.67l-.17.43h-.28l.63-1.62ZM1.94,12.04l-.24-.62-.24.62h.48Z"/>
    <path class="cls-2" d="M4.82,11.93c0-.48.31-.85.8-.85s.79.38.79.85c0,.22-.07.42-.19.56.06.06.12.12.17.18l-.18.17c-.05-.06-.12-.12-.18-.19-.12.07-.26.11-.41.11-.46,0-.8-.36-.8-.84ZM5.83,12.47c-.07-.06-.14-.13-.2-.18l.17-.18c.07.06.14.13.22.2.07-.1.11-.23.11-.38,0-.34-.2-.59-.52-.59s-.52.26-.52.59.22.59.52.59c.08,0,.15-.02.22-.05Z"/>
    <path class="cls-2" d="M8.85,11.11h.67c.32,0,.52.2.52.46,0,.18-.1.33-.28.4.21.12.14.4.32.75h-.29c-.12-.2-.1-.7-.39-.7h-.3v.7h-.26v-1.62ZM9.52,11.78c.15,0,.26-.09.26-.21s-.1-.2-.26-.2h-.41v.41h.41Z"/>
    <path class="cls-2" d="M12.7,12.27l.25-.06c.04.2.17.3.38.3s.35-.09.35-.22c0-.12-.12-.2-.4-.28-.38-.11-.55-.28-.55-.51,0-.26.22-.43.58-.43.33,0,.53.15.6.44l-.27.06c-.04-.16-.15-.24-.35-.24-.18,0-.3.06-.3.18,0,.1.1.17.38.26.4.12.57.29.57.53,0,.28-.24.47-.6.47s-.59-.18-.65-.5Z"/>
    <path class="cls-2" d="M19.35,11.84h-.18v-.25h.18v-.22c0-.19.1-.29.32-.29.05,0,.11,0,.17.02v.24s-.07-.01-.1-.01c-.1,0-.13.04-.13.12v.13h.22v.25h-.22v.89h-.26v-.89Z"/>
    <path class="cls-2" d="M28.98,12.91l.24-.1c.06.12.16.17.25.17.14,0,.26-.1.26-.26v-.15c-.08.09-.18.13-.29.13-.28,0-.49-.25-.49-.57s.2-.57.5-.57c.1,0,.21.03.29.14v-.12h.26v1.15c0,.33-.22.52-.52.52-.21,0-.39-.1-.49-.32ZM29.73,12.12c0-.18-.11-.31-.26-.31s-.26.14-.26.31.11.32.26.32.26-.13.26-.31Z"/>
    <path class="cls-2" d="M38.69,11.1h.26v.6c.11-.11.23-.15.37-.15.25,0,.42.16.42.45v.73h-.26v-.68c0-.17-.09-.24-.22-.24-.14,0-.26.09-.31.25v.67h-.26v-1.62Z"/>
    <path class="cls-2" d="M48.7,11.11h.66c.34,0,.53.15.53.42,0,.15-.06.27-.18.34.16.06.25.2.25.38,0,.28-.24.48-.58.48h-.68v-1.62ZM49.31,11.75c.2,0,.32-.07.32-.2s-.11-.19-.3-.19h-.37v.39h.35ZM49.38,12.47c.2,0,.32-.08.32-.23s-.12-.24-.33-.24h-.4v.47h.41Z"/>
    <path class="cls-2" d="M58.38,11.94c0-.5.35-.87.82-.87.32,0,.58.17.71.46l-.27.08c-.09-.18-.25-.28-.45-.28-.32,0-.54.25-.54.6s.22.58.52.58c.23,0,.4-.12.49-.33l.26.06c-.12.34-.39.53-.74.53-.47,0-.8-.34-.8-.83Z"/>
    <path class="cls-2" d="M65.58,11.11h.27l.28,1.1.31-1.1h.25l.31,1.1.27-1.1h.27l-.43,1.62h-.21l-.33-1.17-.34,1.17h-.22l-.43-1.62Z"/>
    <path class="cls-2" d="M73.9,11.89l-.54-.78h.31l.38.56.38-.56h.32l-.54.78.58.83h-.32l-.41-.61-.42.61h-.32l.58-.84Z"/>
    <path class="cls-2" d="M83.69,11.11h.57c.5,0,.77.31.77.8s-.27.82-.77.82h-.57v-1.62ZM84.22,12.48c.35,0,.54-.19.54-.56s-.2-.54-.54-.54h-.28v1.11h.28Z"/>
    <path class="cls-2" d="M92.73,12.39h-.69v-.23l.73-1.02h.21v1h.18v.25h-.18v.34h-.25v-.34ZM92.73,12.14v-.54l-.4.54h.4Z"/>
    <path class="cls-2" d="M98.46,12.37l.26-.06c.05.14.16.2.28.2.18,0,.29-.12.29-.3s-.13-.3-.29-.3c-.12,0-.21.07-.27.16l-.22-.1.05-.82h.88v.25h-.65l-.02.32c.09-.04.17-.06.25-.06.31,0,.52.23.52.55s-.21.56-.56.56c-.26,0-.45-.12-.53-.39Z"/>
    <path class="cls-2" d="M104.77,11.97c0-.54.22-.84.6-.84.25,0,.41.13.48.36l-.25.06c-.04-.12-.12-.17-.23-.17-.2,0-.32.18-.34.49.1-.11.21-.15.35-.15.3,0,.51.21.51.51s-.22.54-.55.54c-.37,0-.57-.27-.57-.79ZM105.63,12.23c0-.16-.1-.26-.26-.26-.14,0-.25.08-.3.2.01.21.13.34.3.34.16,0,.27-.12.27-.28Z"/>
    <path class="cls-2" d="M112.05,11.38h-.73v-.25h1.08v.2c-.34.4-.54.69-.58,1.4h-.27c.03-.56.18-.94.5-1.35Z"/>
    <path class="cls-2" d="M120.83,11.57c-.11.1-.28.14-.42.14v-.25c.25,0,.41-.17.45-.34h.23v1.6h-.25v-1.16Z"/>
    <path class="cls-2" d="M5.18,28.99c.26-.2.33-.3.33-.42,0-.14-.09-.2-.24-.2-.18,0-.28.1-.29.29l-.26-.05c.03-.3.24-.49.55-.49s.5.2.5.45c0,.14-.05.31-.37.54-.2.15-.29.25-.34.36h.72v.26h-1.06c.02-.27.12-.5.45-.74Z"/>
    <path class="cls-2" d="M16.21,29.32l.26-.04c.04.18.15.25.29.25.16,0,.28-.09.28-.24,0-.14-.1-.25-.27-.25h-.16v-.25h.17c.13,0,.2-.09.2-.2,0-.12-.09-.21-.22-.21-.14,0-.23.09-.25.21l-.26-.04c.05-.26.22-.42.51-.42s.48.17.48.43c0,.15-.06.27-.17.33.15.06.24.2.24.4,0,.29-.22.47-.54.47-.3,0-.49-.15-.56-.45Z"/>
    <path class="cls-2" d="M24.74,28.11h.26v.66h.75v-.66h.26v1.62h-.26v-.7h-.75v.7h-.26v-1.62Z"/>
    <path class="cls-2" d="M32.7,28.11h.26v1.62h-.26v-1.62Z"/>
    <path class="cls-2" d="M42.23,29.3l.26-.03c.02.17.13.24.27.24.16,0,.28-.1.28-.3v-1.1h.26v1.1c0,.36-.22.56-.54.56-.28,0-.49-.16-.53-.47Z"/>
    <path class="cls-2" d="M50.84,28.11h.26v.69l.73-.69h.35l-.68.64.74.98h-.33l-.6-.8-.22.21v.59h-.26v-1.62Z"/>
    <path class="cls-2" d="M58.64,28.11h.26v1.36h.87v.26h-1.13v-1.62Z"/>
    <path class="cls-2" d="M68.29,28.11h.28l.5,1.26.49-1.26h.28v1.62h-.26v-1l-.39,1h-.25l-.4-1v1h-.26v-1.62Z"/>
    <path class="cls-2" d="M77.19,28.11h.25l.76,1.15v-1.15h.26v1.62h-.25l-.76-1.16v1.16h-.26v-1.62Z"/>
    <path class="cls-2" d="M84.66,28.93c0-.48.31-.85.8-.85s.79.38.79.85-.33.84-.79.84-.8-.36-.8-.84ZM85.97,28.93c0-.34-.2-.59-.52-.59s-.52.26-.52.59.22.59.52.59.52-.24.52-.59Z"/>
    <path class="cls-2" d="M94.84,28.11h.66c.32,0,.52.21.52.48s-.2.48-.52.48h-.4v.66h-.26v-1.62ZM95.5,28.81c.15,0,.26-.09.26-.23s-.1-.22-.26-.22h-.39v.45h.39Z"/>
    <path class="cls-2" d="M103.94,28.37h-.52v-.26h1.3v.26h-.52v1.36h-.26v-1.36Z"/>
    <path class="cls-2" d="M111.14,29.13v-1.02h.26v1.02c0,.26.13.39.36.39s.37-.12.37-.38v-1.02h.26v1.02c0,.42-.25.64-.63.64s-.62-.22-.62-.64Z"/>
    <path class="cls-2" d="M121.01,28.11h.28l.4,1.13.4-1.13h.28l-.58,1.62h-.18l-.59-1.62Z"/>
    <path class="cls-2" d="M1.16,45.11h1.13v.26h-.87v.4h.8v.26h-.8v.45h.89v.26h-1.15v-1.62Z"/>
    <path class="cls-2" d="M6.03,45.11h1.11v.26h-.86v.4h.75v.26h-.75v.7h-.26v-1.62Z"/>
    <path class="cls-2" d="M10.49,45.94c0-.47.28-.87.75-.87.32,0,.55.18.65.47l-.26.06c-.08-.18-.22-.26-.4-.26-.31,0-.49.27-.49.6,0,.37.21.57.47.57.21,0,.39-.15.43-.39h-.38v-.26h.65v.87h-.23l-.02-.17c-.1.13-.27.21-.46.21-.42,0-.71-.34-.71-.83Z"/>
    <path class="cls-2" d="M15.64,45.57h.26v.14c.11-.11.23-.15.37-.15.25,0,.42.16.42.45v.73h-.26v-.68c0-.17-.09-.24-.22-.24-.14,0-.26.09-.31.25v.67h-.26v-1.16Z"/>
    <path class="cls-2" d="M20.42,46.15c0-.35.26-.6.59-.6s.59.26.59.6-.26.6-.59.6-.59-.26-.59-.6ZM21.34,46.15c0-.2-.15-.35-.33-.35s-.33.15-.33.35.15.35.33.35.33-.15.33-.35Z"/>
    <path class="cls-2" d="M27.54,45.99l-.59-.88h.3l.42.64.42-.64h.29l-.58.88v.74h-.26v-.74Z"/>
    <path class="cls-2" d="M37.06,46.57l.83-1.2h-.82v-.26h1.2v.17l-.83,1.19h.83v.26h-1.22v-.16Z"/>
    <path class="cls-2" d="M44.43,45.1h.26v.85l.4-.39h.35l-.43.43.46.73h-.29l-.35-.55-.13.13v.42h-.26v-1.63Z"/>
    <path class="cls-2" d="M49.66,45.1h.26v1.63h-.26v-1.63Z"/>
    <path class="cls-2" d="M53.64,45.57h.26v.13c.09-.1.2-.15.31-.15.13,0,.24.07.32.21.1-.14.23-.21.39-.21.24,0,.41.16.41.41v.77h-.26v-.68c0-.16-.07-.25-.18-.25-.12,0-.24.1-.28.25v.68h-.26v-.67c0-.17-.07-.26-.18-.26-.12,0-.24.1-.28.25v.68h-.26v-1.16Z"/>
    <path class="cls-2" d="M63.29,45.57h.27l.28.75.28-.75h.27l-.45,1.16h-.2l-.45-1.16Z"/>
    <path class="cls-2" d="M70.53,45.57h.27l.21.72.22-.72h.26l.22.72.21-.72h.27l-.37,1.16h-.21l-.24-.79-.25.79h-.21l-.37-1.16Z"/>
    <path class="cls-2" d="M78.28,46.14l-.42-.57h.33l.26.35.26-.35h.33l-.42.57.45.59h-.33l-.28-.37-.28.37h-.33l.45-.59Z"/>
    <path class="cls-2" d="M87.92,46.97c.17,0,.23-.04.27-.15l.08-.21-.4-1.05h.27l.26.68.25-.68h.27l-.5,1.35c-.09.25-.2.32-.5.31v-.26Z"/>
    <path class="cls-2" d="M95.78,46.43c0-.17.12-.28.3-.33.27-.07.41-.11.41-.19,0-.06-.07-.1-.17-.1-.13,0-.21.06-.25.16l-.24-.09c.06-.21.24-.32.49-.32.28,0,.45.15.45.42v.47c0,.06.05.1.11.08v.22s-.08.02-.11.02c-.09,0-.17-.05-.21-.12-.09.07-.23.12-.36.12-.24,0-.41-.13-.41-.33ZM96.51,46.41v-.23c-.24.12-.47.09-.47.23,0,.08.07.12.17.12.11,0,.23-.05.29-.12Z"/>
    <path class="cls-2" d="M103.75,46.61v.12h-.26v-1.63h.26v.57c.08-.09.19-.13.3-.13.28,0,.49.26.49.6s-.2.6-.5.6c-.12,0-.22-.04-.3-.15ZM104.28,46.16c0-.19-.11-.34-.26-.34s-.26.15-.26.35.11.34.26.34.26-.15.26-.34Z"/>
    <path class="cls-2" d="M111.56,46.15c0-.35.22-.6.54-.6s.52.24.52.6v.09h-.79c.02.16.13.26.29.26.12,0,.22-.06.28-.17l.2.12c-.11.2-.28.3-.49.3-.34,0-.55-.25-.55-.61ZM112.34,46.02c-.02-.13-.11-.22-.24-.22s-.24.09-.26.22h.51Z"/>
    <path class="cls-2" d="M121.15,46.15c0-.35.22-.6.52-.6.23,0,.4.14.48.36l-.25.06c-.05-.12-.13-.17-.22-.17-.16,0-.27.15-.27.34s.11.35.26.35c.11,0,.2-.08.23-.22l.25.06c-.07.27-.25.41-.48.41-.33,0-.53-.26-.53-.61Z"/>
    <path class="cls-2" d="M3.6,63.15c0-.35.21-.61.49-.61.11,0,.22.04.3.13v-.57h.26v1.63h-.26v-.12c-.08.11-.18.15-.3.15-.29,0-.49-.26-.49-.6ZM4.39,63.16c0-.19-.11-.35-.27-.35s-.26.15-.26.34.11.34.26.34.26-.15.26-.34Z"/>
    <path class="cls-2" d="M14.39,62.22c0-.09.07-.16.16-.16s.17.07.17.16-.07.16-.17.16-.16-.07-.16-.16ZM14.43,62.57h.26v1.16h-.26v-1.16Z"/>
    <path class="cls-2" d="M25.67,64.19v-.26c.07.02.11.03.15.03.09,0,.13-.05.13-.16v-1.23h.26v1.28c0,.26-.11.38-.32.38-.07,0-.15-.02-.22-.04ZM25.91,62.22c0-.09.07-.16.17-.16s.16.07.16.16-.07.16-.16.16-.17-.07-.17-.16Z"/>
    <path class="cls-2" d="M37.43,62.57h.26v.13c.08-.11.18-.15.3-.15.29,0,.5.26.5.6s-.21.6-.5.6c-.12,0-.22-.04-.3-.13v.58h-.26v-1.64ZM38.23,63.15c0-.19-.11-.34-.27-.34s-.26.15-.26.34.11.35.27.35.27-.15.27-.34Z"/>
    <path class="cls-2" d="M49.61,63.63c-.08.09-.19.13-.3.13-.29,0-.5-.26-.5-.6s.21-.6.5-.6c.12,0,.23.04.3.15v-.13h.26v1.64h-.26v-.58ZM49.61,63.14c0-.19-.11-.34-.27-.34s-.27.15-.27.34.11.34.27.34.27-.16.27-.35Z"/>
    <path class="cls-2" d="M58.46,62.57h.26v.15c.09-.12.21-.17.39-.16v.3c-.26,0-.39.11-.39.34v.53h-.26v-1.16Z"/>
    <path class="cls-2" d="M67.41,63.42l.23-.07c.04.12.14.17.28.17.12,0,.2-.04.2-.1s-.08-.11-.26-.17c-.29-.09-.42-.22-.42-.38,0-.2.18-.32.44-.32.25,0,.41.11.49.32l-.24.07c-.04-.11-.12-.15-.25-.15-.11,0-.18.04-.18.1s.06.1.24.15c.3.09.43.2.43.37,0,.21-.18.34-.46.34s-.44-.12-.5-.34Z"/>
    <path class="cls-2" d="M77.65,63.41v-.59h-.19v-.25h.19v-.33h.26v.33h.23v.25h-.23v.53c0,.12.04.15.11.15h.14v.25s-.09,0-.14,0c-.25,0-.35-.1-.35-.35Z"/>
    <path class="cls-2" d="M90.26,63.29v-.72h.26v.69c0,.16.09.23.21.23.13,0,.27-.1.32-.26v-.66h.26v1.16h-.26v-.14c-.11.12-.23.17-.37.17-.26,0-.42-.17-.42-.46Z"/>
    <path class="cls-2" d="M101.83,63.54l.53-.71h-.52v-.26h.89v.21l-.52.7h.52v.26h-.9v-.19Z"/>
    <path class="cls-2" d="M111.06,62.95c0-.53.18-.82.55-.82s.55.29.55.82-.18.81-.55.81-.55-.29-.55-.81ZM111.89,62.95c0-.4-.11-.57-.29-.57s-.29.17-.29.57.11.56.29.56.29-.18.29-.56Z"/>
    <path class="cls-2" d="M118.5,63.27c0-.15.06-.29.23-.39-.11-.07-.18-.18-.18-.32,0-.25.2-.42.5-.42s.5.18.5.42c0,.14-.07.26-.18.32.16.1.23.24.23.39,0,.29-.22.49-.54.49s-.54-.2-.54-.49ZM119.32,63.26c0-.16-.12-.26-.28-.26s-.28.1-.28.26.11.25.28.25.28-.1.28-.25ZM119.27,62.57c0-.11-.1-.19-.23-.19s-.23.08-.23.19.1.19.23.19.23-.08.23-.19Z"/>
    <path class="cls-2" d="M123.03,63.39l.25-.06c.04.12.12.17.23.17.19,0,.31-.18.34-.49-.1.11-.22.16-.35.16-.29,0-.51-.21-.51-.52s.22-.54.55-.54c.37,0,.57.27.57.79s-.22.84-.6.84c-.25,0-.41-.13-.48-.36ZM123.82,62.71c0-.21-.13-.34-.3-.34-.16,0-.27.12-.27.28s.1.28.27.28c.14,0,.24-.09.3-.21Z"/>
  </g>
</svg>