<?xml version="1.0" encoding="UTF-8"?>
<svg id="Layer_1" data-name="Layer 1" xmlns="http://www.w3.org/2000/svg" viewBox="0 0 25 25">
  <defs>
    <style>
      .cls-1 {
        fill: #000;
        stroke-width: 0px;
      }
    </style>
  </defs>
  <path class="cls-1" d="M13.97,10.83H5.59v-2.88h11.52l.73-.16,2.07,1.61c-1.53,1.58-3.58,3.27-5.78,4.54v.41h9.73v2.96h-9.73v3.94c0,1.66-.39,2.52-1.69,2.98-1.22.47-2.88.52-5.03.52-.21-.93-.83-2.33-1.35-3.16,1.58.05,3.55.05,4.07.05s.67-.1.67-.47v-3.86H1.15v-2.96h9.65v-1.37c1.06-.54,2.18-1.35,3.16-2.15ZM13.11.24c.62.78,1.22,1.82,1.58,2.65h8.98v5.97h-3.22v-3.04H4.32v3.04H1.25V2.89h9.73c-.29-.6-.62-1.22-.99-1.71l3.11-.93Z"/>
</svg>